<svg xmlns="http://www.w3.org/2000/svg" xmlns:xlink="http://www.w3.org/1999/xlink" width="1920" zoomAndPan="magnify" viewBox="0 0 1440 809.999993" height="1080" preserveAspectRatio="xMidYMid meet" version="1.2"><g id="c0bb6ee40f"><rect x="0" width="1440" y="0" height="809.999993" style="fill:#ffffff;fill-opacity:1;stroke:none;"/><rect x="0" width="1440" y="0" height="809.999993" style="fill:#020202;fill-opacity:1;stroke:none;"/><path style=" stroke:none;fill-rule:nonzero;fill:#e6e9ed;fill-opacity:1;" d="M 710.773438 644.671875 L 613.074219 672.585938 C 613.074219 672.585938 613.074219 652.117188 622.378906 644.671875 L 693.839844 598.148438 L 702.957031 596.195312 C 694.777344 557.675781 687.511719 505.28125 687.511719 467.882812 L 687.511719 225.960938 C 687.511719 170.132812 697.199219 123.609375 720.078125 123.609375 C 742.976562 123.609375 752.644531 170.132812 752.644531 225.960938 L 752.644531 467.882812 C 752.644531 505.289062 745.394531 557.675781 737.199219 596.195312 L 746.316406 598.148438 L 817.777344 644.671875 C 827.082031 652.117188 827.082031 672.585938 827.082031 672.585938 L 732.601562 644.671875 Z M 710.773438 644.671875 "/><path style=" stroke:none;fill-rule:nonzero;fill:#545c66;fill-opacity:1;" d="M 529.332031 473.894531 C 526.773438 473.894531 524.679688 471.8125 524.679688 469.242188 L 524.679688 459.9375 C 524.679688 457.371094 526.773438 455.285156 529.332031 455.285156 C 531.910156 455.285156 533.984375 457.371094 533.984375 459.9375 L 533.984375 469.242188 C 533.984375 471.820312 531.910156 473.894531 529.332031 473.894531 Z M 529.332031 473.894531 "/><path style=" stroke:none;fill-rule:nonzero;fill:#545c66;fill-opacity:1;" d="M 557.246094 464.589844 C 554.6875 464.589844 552.59375 462.507812 552.59375 459.9375 L 552.59375 450.632812 C 552.59375 448.066406 554.6875 445.980469 557.246094 445.980469 C 559.824219 445.980469 561.898438 448.066406 561.898438 450.632812 L 561.898438 459.9375 C 561.898438 462.515625 559.824219 464.589844 557.246094 464.589844 Z M 557.246094 464.589844 "/><path style=" stroke:none;fill-rule:nonzero;fill:#545c66;fill-opacity:1;" d="M 585.160156 455.285156 C 582.601562 455.285156 580.507812 453.203125 580.507812 450.632812 L 580.507812 441.328125 C 580.507812 438.761719 582.601562 436.675781 585.160156 436.675781 C 587.738281 436.675781 589.8125 438.761719 589.8125 441.328125 L 589.8125 450.632812 C 589.8125 453.210938 587.738281 455.285156 585.160156 455.285156 Z M 585.160156 455.285156 "/><path style=" stroke:none;fill-rule:nonzero;fill:#4a89dc;fill-opacity:1;" d="M 557.265625 420.578125 C 557.265625 423.136719 555.171875 425.230469 552.613281 425.230469 L 524.679688 425.230469 C 522.121094 425.230469 520.027344 423.136719 520.027344 420.578125 L 520.027344 370.183594 C 520.027344 367.625 522.121094 365.53125 524.679688 365.53125 L 552.613281 365.53125 C 555.171875 365.53125 557.265625 367.625 557.265625 370.183594 Z M 557.265625 420.578125 "/><path style=" stroke:none;fill-rule:nonzero;fill:#4a89dc;fill-opacity:1;" d="M 631.703125 364.75 C 631.703125 367.308594 629.609375 369.402344 627.050781 369.402344 L 599.117188 369.402344 C 596.558594 369.402344 594.464844 367.308594 594.464844 364.75 L 594.464844 314.355469 C 594.464844 311.796875 596.558594 309.703125 599.117188 309.703125 L 627.050781 309.703125 C 629.609375 309.703125 631.703125 311.796875 631.703125 314.355469 Z M 631.703125 364.75 "/><path style=" stroke:none;fill-rule:nonzero;fill:#5d9cec;fill-opacity:1;" d="M 631.683594 426.011719 L 585.160156 443.972656 L 529.332031 465.558594 L 426.980469 505.101562 C 426.980469 505.101562 426.980469 484.734375 436.285156 477.1875 L 687.53125 283.921875 L 687.511719 291.09375 L 687.511719 412.054688 L 687.53125 412.054688 Z M 631.683594 426.011719 "/><path style=" stroke:none;fill-rule:nonzero;fill:#656d78;fill-opacity:1;" d="M 687.53125 412.054688 L 687.511719 412.054688 L 687.511719 380.09375 L 428.429688 492.738281 C 427.035156 499.289062 426.980469 505.101562 426.980469 505.101562 L 529.332031 465.558594 Z M 687.53125 412.054688 "/><path style=" stroke:none;fill-rule:nonzero;fill:#545c66;fill-opacity:1;" d="M 910.824219 473.894531 C 913.382812 473.894531 915.476562 471.8125 915.476562 469.242188 L 915.476562 459.9375 C 915.476562 457.371094 913.382812 455.285156 910.824219 455.285156 C 908.246094 455.285156 906.171875 457.371094 906.171875 459.9375 L 906.171875 469.242188 C 906.171875 471.820312 908.246094 473.894531 910.824219 473.894531 Z M 910.824219 473.894531 "/><path style=" stroke:none;fill-rule:nonzero;fill:#545c66;fill-opacity:1;" d="M 882.910156 464.589844 C 885.46875 464.589844 887.5625 462.507812 887.5625 459.9375 L 887.5625 450.632812 C 887.5625 448.066406 885.46875 445.980469 882.910156 445.980469 C 880.332031 445.980469 878.257812 448.066406 878.257812 450.632812 L 878.257812 459.9375 C 878.257812 462.515625 880.332031 464.589844 882.910156 464.589844 Z M 882.910156 464.589844 "/><path style=" stroke:none;fill-rule:nonzero;fill:#545c66;fill-opacity:1;" d="M 854.996094 455.285156 C 857.554688 455.285156 859.648438 453.203125 859.648438 450.632812 L 859.648438 441.328125 C 859.648438 438.761719 857.554688 436.675781 854.996094 436.675781 C 852.417969 436.675781 850.34375 438.761719 850.34375 441.328125 L 850.34375 450.632812 C 850.34375 453.210938 852.417969 455.285156 854.996094 455.285156 Z M 854.996094 455.285156 "/><path style=" stroke:none;fill-rule:nonzero;fill:#4a89dc;fill-opacity:1;" d="M 882.890625 420.578125 C 882.890625 423.136719 884.984375 425.230469 887.542969 425.230469 L 915.476562 425.230469 C 918.035156 425.230469 920.128906 423.136719 920.128906 420.578125 L 920.128906 370.183594 C 920.128906 367.625 918.035156 365.53125 915.476562 365.53125 L 887.542969 365.53125 C 884.984375 365.53125 882.890625 367.625 882.890625 370.183594 Z M 882.890625 420.578125 "/><path style=" stroke:none;fill-rule:nonzero;fill:#4a89dc;fill-opacity:1;" d="M 808.453125 364.75 C 808.453125 367.308594 810.546875 369.402344 813.105469 369.402344 L 841.039062 369.402344 C 843.597656 369.402344 845.691406 367.308594 845.691406 364.75 L 845.691406 314.355469 C 845.691406 311.796875 843.597656 309.703125 841.039062 309.703125 L 813.105469 309.703125 C 810.546875 309.703125 808.453125 311.796875 808.453125 314.355469 Z M 808.453125 364.75 "/><path style=" stroke:none;fill-rule:nonzero;fill:#5d9cec;fill-opacity:1;" d="M 808.472656 426.011719 L 854.996094 443.972656 L 910.824219 465.558594 L 1013.175781 505.101562 C 1013.175781 505.101562 1013.175781 484.734375 1003.871094 477.1875 L 752.625 283.921875 L 752.644531 291.09375 L 752.644531 412.054688 L 752.625 412.054688 Z M 808.472656 426.011719 "/><path style=" stroke:none;fill-rule:nonzero;fill:#656d78;fill-opacity:1;" d="M 752.625 412.054688 L 752.644531 412.054688 L 752.644531 380.09375 L 1011.722656 492.726562 C 1013.121094 499.277344 1013.175781 505.09375 1013.175781 505.09375 L 910.824219 465.546875 Z M 752.625 412.054688 "/><path style=" stroke:none;fill-rule:nonzero;fill:#5d9cec;fill-opacity:1;" d="M 703.597656 598.148438 L 701.457031 588.835938 L 622.378906 644.671875 C 613.074219 652.117188 613.074219 672.585938 613.074219 672.585938 L 710.773438 644.671875 Z M 703.597656 598.148438 "/><path style=" stroke:none;fill-rule:nonzero;fill:#5d9cec;fill-opacity:1;" d="M 736.554688 598.148438 L 738.714844 588.835938 L 817.777344 644.671875 C 827.082031 652.117188 827.082031 672.585938 827.082031 672.585938 L 729.402344 644.671875 Z M 736.554688 598.148438 "/><path style=" stroke:none;fill-rule:nonzero;fill:#5d9cec;fill-opacity:1;" d="M 734.035156 165.480469 C 732.359375 165.480469 730.742188 164.570312 729.914062 162.96875 C 729.894531 162.933594 726.199219 156.175781 720.078125 156.175781 C 713.953125 156.175781 710.28125 162.914062 710.242188 162.96875 C 709.0625 165.257812 706.222656 166.160156 703.972656 164.953125 C 701.699219 163.769531 700.808594 160.960938 701.988281 158.679688 C 702.25 158.207031 708.261719 146.871094 720.078125 146.871094 C 731.894531 146.871094 737.925781 158.207031 738.15625 158.6875 C 739.355469 160.96875 738.464844 163.777344 736.175781 164.960938 C 735.503906 165.3125 734.761719 165.480469 734.035156 165.480469 Z M 734.035156 165.480469 "/><path style=" stroke:none;fill-rule:nonzero;fill:#5d9cec;fill-opacity:1;" d="M 720.078125 686.542969 C 717.519531 686.542969 715.425781 684.460938 715.425781 681.890625 L 715.425781 579.539062 C 715.425781 576.972656 717.519531 574.886719 720.078125 574.886719 C 722.65625 574.886719 724.730469 576.972656 724.730469 579.539062 L 724.730469 681.890625 C 724.730469 684.460938 722.65625 686.542969 720.078125 686.542969 Z M 720.078125 686.542969 "/></g></svg>